<?xml version="1.0" encoding="utf-8"?>
<!-- Generator: Adobe Illustrator 24.1.0, SVG Export Plug-In . SVG Version: 6.00 Build 0)  -->
<svg version="1.1" id="Spinning_PokeBall_loading_indicator"
	 xmlns="http://www.w3.org/2000/svg" xmlns:xlink="http://www.w3.org/1999/xlink" x="0px" y="0px" viewBox="0 0 10 10"
	 style="enable-background:new 0 0 10 10;" xml:space="preserve">
<style type="text/css">
  .st0{fill:#ccc;}
  .circle{fill:#ccc;}
  .st1{fill:#ccc;}
</style>
<g id="white">
	<circle class="circle" cx="5" cy="5" r="0.9721008"/>
	<g>
		<path class="st1" d="M3.3520279,4.7831964C3.4585078,3.9670653,4.1548395,3.3363116,5,3.3363116
			c0.8451672,0,1.541492,0.6307538,1.6479721,1.4468849H9.5C9.3868408,2.3956072,7.4156046,0.4945158,5,0.4945158
			c-2.4155982,0-4.3868408,1.9010915-4.5,4.2886806H3.3520279z"/>
		<path class="st0" d="M6.6257057,5.3515573C6.4642611,6.1014128,5.7981219,6.6636882,5,6.6636882
			c-0.7981153,0-1.4642613-0.5622754-1.625706-1.3121309H0.5094827C0.6890336,7.6753707,2.6301358,9.5054846,5,9.5054846
			c2.3698707,0,4.3109665-1.8301139,4.4905176-4.1539273H6.6257057z"/>
	</g>
</g>
</svg>
